<mxfile host="app.diagrams.net" modified="2022-12-09T06:14:33.189Z" agent="5.0 (Windows NT 10.0; Win64; x64) AppleWebKit/537.36 (KHTML, like Gecko) Chrome/108.0.0.0 Safari/537.36" version="20.6.0" etag="vXRYf3w8ty0CbQYGWjny" type="github">
  <diagram id="frfGcgA22GGOmQ5Yl26P" name="第 1 页">
    <mxGraphModel dx="1422" dy="762" grid="1" gridSize="10" guides="1" tooltips="1" connect="1" arrows="1" fold="1" page="1" pageScale="1" pageWidth="827" pageHeight="1169" math="0" shadow="0">
      <root>
        <mxCell id="0" />
        <mxCell id="1" parent="0" />
        <mxCell id="TeYJb4yFEiiPOOzQJac0-3" value="小程序" style="ellipse;whiteSpace=wrap;html=1;" vertex="1" parent="1">
          <mxGeometry x="160" y="120" width="120" height="80" as="geometry" />
        </mxCell>
        <mxCell id="TeYJb4yFEiiPOOzQJac0-5" value="" style="endArrow=none;dashed=1;html=1;rounded=0;entryX=0.5;entryY=1;entryDx=0;entryDy=0;startArrow=none;" edge="1" parent="1" target="TeYJb4yFEiiPOOzQJac0-3">
          <mxGeometry width="50" height="50" relative="1" as="geometry">
            <mxPoint x="220" y="930" as="sourcePoint" />
            <mxPoint x="440" y="370" as="targetPoint" />
          </mxGeometry>
        </mxCell>
        <mxCell id="TeYJb4yFEiiPOOzQJac0-4" value="auth server" style="ellipse;whiteSpace=wrap;html=1;" vertex="1" parent="1">
          <mxGeometry x="600" y="120" width="120" height="80" as="geometry" />
        </mxCell>
        <mxCell id="TeYJb4yFEiiPOOzQJac0-7" value="" style="endArrow=none;dashed=1;html=1;rounded=0;entryX=0.5;entryY=1;entryDx=0;entryDy=0;" edge="1" parent="1">
          <mxGeometry width="50" height="50" relative="1" as="geometry">
            <mxPoint x="660" y="1160" as="sourcePoint" />
            <mxPoint x="659.5" y="200" as="targetPoint" />
          </mxGeometry>
        </mxCell>
        <mxCell id="TeYJb4yFEiiPOOzQJac0-12" style="edgeStyle=orthogonalEdgeStyle;rounded=0;orthogonalLoop=1;jettySize=auto;html=1;entryX=0.5;entryY=0;entryDx=0;entryDy=0;" edge="1" parent="1" source="TeYJb4yFEiiPOOzQJac0-1" target="TeYJb4yFEiiPOOzQJac0-11">
          <mxGeometry relative="1" as="geometry" />
        </mxCell>
        <mxCell id="TeYJb4yFEiiPOOzQJac0-1" value="获取微信账号状态" style="rounded=0;whiteSpace=wrap;html=1;fillColor=#d5e8d4;strokeColor=#82b366;" vertex="1" parent="1">
          <mxGeometry x="160" y="240" width="120" height="60" as="geometry" />
        </mxCell>
        <mxCell id="TeYJb4yFEiiPOOzQJac0-8" value="" style="endArrow=classic;html=1;rounded=0;exitX=1;exitY=0.5;exitDx=0;exitDy=0;" edge="1" parent="1" source="TeYJb4yFEiiPOOzQJac0-1">
          <mxGeometry width="50" height="50" relative="1" as="geometry">
            <mxPoint x="390" y="420" as="sourcePoint" />
            <mxPoint x="660" y="270" as="targetPoint" />
          </mxGeometry>
        </mxCell>
        <mxCell id="TeYJb4yFEiiPOOzQJac0-9" value="" style="endArrow=classic;html=1;rounded=0;entryX=1;entryY=0.867;entryDx=0;entryDy=0;entryPerimeter=0;" edge="1" parent="1" target="TeYJb4yFEiiPOOzQJac0-1">
          <mxGeometry width="50" height="50" relative="1" as="geometry">
            <mxPoint x="660" y="290" as="sourcePoint" />
            <mxPoint x="220" y="340" as="targetPoint" />
          </mxGeometry>
        </mxCell>
        <mxCell id="TeYJb4yFEiiPOOzQJac0-10" value="open_id、 phone_numer" style="text;html=1;strokeColor=none;fillColor=none;align=center;verticalAlign=middle;whiteSpace=wrap;rounded=0;" vertex="1" parent="1">
          <mxGeometry x="400" y="290" width="200" height="30" as="geometry" />
        </mxCell>
        <mxCell id="TeYJb4yFEiiPOOzQJac0-37" style="edgeStyle=orthogonalEdgeStyle;rounded=0;orthogonalLoop=1;jettySize=auto;html=1;" edge="1" parent="1" source="TeYJb4yFEiiPOOzQJac0-11" target="TeYJb4yFEiiPOOzQJac0-14">
          <mxGeometry relative="1" as="geometry" />
        </mxCell>
        <mxCell id="TeYJb4yFEiiPOOzQJac0-39" value="Y" style="edgeLabel;html=1;align=center;verticalAlign=middle;resizable=0;points=[];" vertex="1" connectable="0" parent="TeYJb4yFEiiPOOzQJac0-37">
          <mxGeometry x="0.2727" y="-1" relative="1" as="geometry">
            <mxPoint as="offset" />
          </mxGeometry>
        </mxCell>
        <mxCell id="TeYJb4yFEiiPOOzQJac0-38" value="N" style="edgeStyle=orthogonalEdgeStyle;rounded=0;orthogonalLoop=1;jettySize=auto;html=1;" edge="1" parent="1" source="TeYJb4yFEiiPOOzQJac0-11" target="TeYJb4yFEiiPOOzQJac0-13">
          <mxGeometry relative="1" as="geometry" />
        </mxCell>
        <mxCell id="TeYJb4yFEiiPOOzQJac0-11" value="手机号是否为空？" style="rhombus;whiteSpace=wrap;html=1;fillColor=#e1d5e7;strokeColor=#9673a6;" vertex="1" parent="1">
          <mxGeometry x="150" y="330" width="140" height="80" as="geometry" />
        </mxCell>
        <mxCell id="TeYJb4yFEiiPOOzQJac0-16" style="edgeStyle=orthogonalEdgeStyle;rounded=0;orthogonalLoop=1;jettySize=auto;html=1;" edge="1" parent="1" source="TeYJb4yFEiiPOOzQJac0-13" target="TeYJb4yFEiiPOOzQJac0-15">
          <mxGeometry relative="1" as="geometry" />
        </mxCell>
        <mxCell id="TeYJb4yFEiiPOOzQJac0-13" value="登录流程" style="rounded=0;whiteSpace=wrap;html=1;fillColor=#dae8fc;strokeColor=#6c8ebf;" vertex="1" parent="1">
          <mxGeometry x="240" y="440" width="120" height="60" as="geometry" />
        </mxCell>
        <mxCell id="TeYJb4yFEiiPOOzQJac0-20" style="edgeStyle=orthogonalEdgeStyle;rounded=0;orthogonalLoop=1;jettySize=auto;html=1;" edge="1" parent="1" source="TeYJb4yFEiiPOOzQJac0-14" target="TeYJb4yFEiiPOOzQJac0-19">
          <mxGeometry relative="1" as="geometry" />
        </mxCell>
        <mxCell id="TeYJb4yFEiiPOOzQJac0-14" value="注册流程" style="rounded=0;whiteSpace=wrap;html=1;fillColor=#dae8fc;strokeColor=#6c8ebf;" vertex="1" parent="1">
          <mxGeometry x="80" y="440" width="120" height="60" as="geometry" />
        </mxCell>
        <mxCell id="TeYJb4yFEiiPOOzQJac0-15" value="点击登录按钮" style="rounded=0;whiteSpace=wrap;html=1;fillColor=#d5e8d4;strokeColor=#82b366;" vertex="1" parent="1">
          <mxGeometry x="240" y="520" width="120" height="60" as="geometry" />
        </mxCell>
        <mxCell id="TeYJb4yFEiiPOOzQJac0-17" value="" style="endArrow=classic;html=1;rounded=0;exitX=1;exitY=0.5;exitDx=0;exitDy=0;" edge="1" parent="1" source="TeYJb4yFEiiPOOzQJac0-15">
          <mxGeometry width="50" height="50" relative="1" as="geometry">
            <mxPoint x="370" y="550" as="sourcePoint" />
            <mxPoint x="660" y="549.5" as="targetPoint" />
          </mxGeometry>
        </mxCell>
        <mxCell id="TeYJb4yFEiiPOOzQJac0-18" value="/wxa/signin&amp;nbsp; {open_id, phone_numer,&amp;nbsp;&amp;nbsp;scene ?}" style="text;html=1;strokeColor=none;fillColor=none;align=center;verticalAlign=middle;whiteSpace=wrap;rounded=0;" vertex="1" parent="1">
          <mxGeometry x="350" y="520" width="325" height="30" as="geometry" />
        </mxCell>
        <mxCell id="TeYJb4yFEiiPOOzQJac0-22" style="edgeStyle=orthogonalEdgeStyle;rounded=0;orthogonalLoop=1;jettySize=auto;html=1;" edge="1" parent="1" source="TeYJb4yFEiiPOOzQJac0-19" target="TeYJb4yFEiiPOOzQJac0-21">
          <mxGeometry relative="1" as="geometry" />
        </mxCell>
        <mxCell id="TeYJb4yFEiiPOOzQJac0-19" value="点击注册按钮" style="rounded=0;whiteSpace=wrap;html=1;fillColor=#dae8fc;strokeColor=#6c8ebf;" vertex="1" parent="1">
          <mxGeometry x="80" y="520" width="120" height="60" as="geometry" />
        </mxCell>
        <mxCell id="TeYJb4yFEiiPOOzQJac0-28" style="edgeStyle=orthogonalEdgeStyle;rounded=0;orthogonalLoop=1;jettySize=auto;html=1;" edge="1" parent="1" source="TeYJb4yFEiiPOOzQJac0-21" target="TeYJb4yFEiiPOOzQJac0-23">
          <mxGeometry relative="1" as="geometry" />
        </mxCell>
        <mxCell id="TeYJb4yFEiiPOOzQJac0-21" value="用户授权手机号" style="rounded=0;whiteSpace=wrap;html=1;fillColor=#dae8fc;strokeColor=#6c8ebf;" vertex="1" parent="1">
          <mxGeometry x="80" y="600" width="120" height="60" as="geometry" />
        </mxCell>
        <mxCell id="TeYJb4yFEiiPOOzQJac0-24" style="edgeStyle=orthogonalEdgeStyle;rounded=0;orthogonalLoop=1;jettySize=auto;html=1;" edge="1" parent="1" source="TeYJb4yFEiiPOOzQJac0-23">
          <mxGeometry relative="1" as="geometry">
            <mxPoint x="660" y="710" as="targetPoint" />
          </mxGeometry>
        </mxCell>
        <mxCell id="TeYJb4yFEiiPOOzQJac0-30" style="edgeStyle=orthogonalEdgeStyle;rounded=0;orthogonalLoop=1;jettySize=auto;html=1;" edge="1" parent="1" source="TeYJb4yFEiiPOOzQJac0-23" target="TeYJb4yFEiiPOOzQJac0-29">
          <mxGeometry relative="1" as="geometry" />
        </mxCell>
        <mxCell id="TeYJb4yFEiiPOOzQJac0-23" value="检查手机是否已经被注册过" style="rounded=0;whiteSpace=wrap;html=1;fillColor=#d5e8d4;strokeColor=#82b366;" vertex="1" parent="1">
          <mxGeometry x="80" y="680" width="120" height="60" as="geometry" />
        </mxCell>
        <mxCell id="TeYJb4yFEiiPOOzQJac0-25" value="" style="endArrow=classic;html=1;rounded=0;" edge="1" parent="1">
          <mxGeometry width="50" height="50" relative="1" as="geometry">
            <mxPoint x="660" y="570" as="sourcePoint" />
            <mxPoint x="360" y="570" as="targetPoint" />
          </mxGeometry>
        </mxCell>
        <mxCell id="TeYJb4yFEiiPOOzQJac0-26" value="" style="endArrow=classic;html=1;rounded=0;" edge="1" parent="1">
          <mxGeometry width="50" height="50" relative="1" as="geometry">
            <mxPoint x="660" y="730" as="sourcePoint" />
            <mxPoint x="200" y="730" as="targetPoint" />
          </mxGeometry>
        </mxCell>
        <mxCell id="TeYJb4yFEiiPOOzQJac0-44" style="edgeStyle=orthogonalEdgeStyle;rounded=0;orthogonalLoop=1;jettySize=auto;html=1;entryX=0.5;entryY=0;entryDx=0;entryDy=0;" edge="1" parent="1" source="TeYJb4yFEiiPOOzQJac0-29" target="TeYJb4yFEiiPOOzQJac0-32">
          <mxGeometry relative="1" as="geometry" />
        </mxCell>
        <mxCell id="TeYJb4yFEiiPOOzQJac0-45" style="edgeStyle=orthogonalEdgeStyle;rounded=0;orthogonalLoop=1;jettySize=auto;html=1;" edge="1" parent="1" source="TeYJb4yFEiiPOOzQJac0-29" target="TeYJb4yFEiiPOOzQJac0-41">
          <mxGeometry relative="1" as="geometry" />
        </mxCell>
        <mxCell id="TeYJb4yFEiiPOOzQJac0-29" value="手机是否已经被注册" style="rhombus;whiteSpace=wrap;html=1;fillColor=#e1d5e7;strokeColor=#9673a6;" vertex="1" parent="1">
          <mxGeometry x="70" y="760" width="140" height="80" as="geometry" />
        </mxCell>
        <mxCell id="TeYJb4yFEiiPOOzQJac0-47" style="edgeStyle=orthogonalEdgeStyle;rounded=0;orthogonalLoop=1;jettySize=auto;html=1;" edge="1" parent="1" source="TeYJb4yFEiiPOOzQJac0-32" target="TeYJb4yFEiiPOOzQJac0-43">
          <mxGeometry relative="1" as="geometry" />
        </mxCell>
        <mxCell id="TeYJb4yFEiiPOOzQJac0-32" value="绑定" style="rounded=0;whiteSpace=wrap;html=1;fillColor=#dae8fc;strokeColor=#6c8ebf;" vertex="1" parent="1">
          <mxGeometry y="880" width="120" height="60" as="geometry" />
        </mxCell>
        <mxCell id="TeYJb4yFEiiPOOzQJac0-33" value="" style="endArrow=none;dashed=1;html=1;rounded=0;entryX=0.5;entryY=1;entryDx=0;entryDy=0;" edge="1" parent="1">
          <mxGeometry width="50" height="50" relative="1" as="geometry">
            <mxPoint x="220" y="1160" as="sourcePoint" />
            <mxPoint x="220" y="920" as="targetPoint" />
          </mxGeometry>
        </mxCell>
        <mxCell id="TeYJb4yFEiiPOOzQJac0-50" style="edgeStyle=orthogonalEdgeStyle;rounded=0;orthogonalLoop=1;jettySize=auto;html=1;" edge="1" parent="1" source="TeYJb4yFEiiPOOzQJac0-41">
          <mxGeometry relative="1" as="geometry">
            <mxPoint x="660" y="910" as="targetPoint" />
          </mxGeometry>
        </mxCell>
        <mxCell id="TeYJb4yFEiiPOOzQJac0-41" value="注册" style="rounded=0;whiteSpace=wrap;html=1;fillColor=#d5e8d4;strokeColor=#82b366;" vertex="1" parent="1">
          <mxGeometry x="200" y="880" width="120" height="60" as="geometry" />
        </mxCell>
        <mxCell id="TeYJb4yFEiiPOOzQJac0-54" style="edgeStyle=orthogonalEdgeStyle;rounded=0;orthogonalLoop=1;jettySize=auto;html=1;" edge="1" parent="1" source="TeYJb4yFEiiPOOzQJac0-43" target="TeYJb4yFEiiPOOzQJac0-53">
          <mxGeometry relative="1" as="geometry" />
        </mxCell>
        <mxCell id="TeYJb4yFEiiPOOzQJac0-43" value="弹窗确认绑定" style="rounded=0;whiteSpace=wrap;html=1;fillColor=#dae8fc;strokeColor=#6c8ebf;" vertex="1" parent="1">
          <mxGeometry y="960" width="120" height="60" as="geometry" />
        </mxCell>
        <mxCell id="TeYJb4yFEiiPOOzQJac0-46" value="phone_numer" style="text;html=1;strokeColor=none;fillColor=none;align=center;verticalAlign=middle;whiteSpace=wrap;rounded=0;" vertex="1" parent="1">
          <mxGeometry x="330" y="680" width="230" height="30" as="geometry" />
        </mxCell>
        <mxCell id="TeYJb4yFEiiPOOzQJac0-51" value="" style="endArrow=classic;html=1;rounded=0;" edge="1" parent="1">
          <mxGeometry width="50" height="50" relative="1" as="geometry">
            <mxPoint x="660" y="930" as="sourcePoint" />
            <mxPoint x="320" y="930" as="targetPoint" />
          </mxGeometry>
        </mxCell>
        <mxCell id="TeYJb4yFEiiPOOzQJac0-52" value="/wxa/register&amp;nbsp; {phone_numer, open_id, scene ?}" style="text;html=1;strokeColor=none;fillColor=none;align=center;verticalAlign=middle;whiteSpace=wrap;rounded=0;" vertex="1" parent="1">
          <mxGeometry x="350" y="880" width="290" height="30" as="geometry" />
        </mxCell>
        <mxCell id="TeYJb4yFEiiPOOzQJac0-55" style="edgeStyle=orthogonalEdgeStyle;rounded=0;orthogonalLoop=1;jettySize=auto;html=1;" edge="1" parent="1" source="TeYJb4yFEiiPOOzQJac0-53">
          <mxGeometry relative="1" as="geometry">
            <mxPoint x="660" y="1070" as="targetPoint" />
          </mxGeometry>
        </mxCell>
        <mxCell id="TeYJb4yFEiiPOOzQJac0-53" value="确认绑定" style="rounded=0;whiteSpace=wrap;html=1;fillColor=#d5e8d4;strokeColor=#82b366;" vertex="1" parent="1">
          <mxGeometry y="1040" width="120" height="60" as="geometry" />
        </mxCell>
        <mxCell id="TeYJb4yFEiiPOOzQJac0-56" value="/wxa/bind&amp;nbsp; {phone_numer, open_id, scene ?}" style="text;html=1;strokeColor=none;fillColor=none;align=center;verticalAlign=middle;whiteSpace=wrap;rounded=0;" vertex="1" parent="1">
          <mxGeometry x="280" y="1040" width="290" height="30" as="geometry" />
        </mxCell>
      </root>
    </mxGraphModel>
  </diagram>
</mxfile>
